<svg aria-hidden="true" style="width:0;height:0;position:absolute;overflow:hidden" xmlns="http://www.w3.org/2000/svg"><defs><symbol id="comment" viewBox="0 0 32 32"><path stroke-width="2" d="M5 26v-1H2c-.622 0-1-.404-1-.904V2.14C1 1.486 1.53 1 2 1h28c.47 0 1 .486 1 1.14v21.956c0 .5-.378.904-1 .904H16.316L5.354 30.688a1.618 1.618 0 0 1-.341.128l-.011.002L5 30.752V26z"/></symbol><symbol id="copy" viewBox="0 0 64 32"><path d="M0 0h64L32 32 0 0z"/></symbol><symbol id="search" viewBox="0 0 32 32"><path d="m31.008 27.231-7.58-6.447c-.784-.705-1.622-1.029-2.299-.998a11.954 11.954 0 0 0 2.87-7.787c0-6.627-5.373-12-12-12s-12 5.373-12 12 5.373 12 12 12c2.972 0 5.691-1.081 7.787-2.87-.031.677.293 1.515.998 2.299l6.447 7.58c1.104 1.226 2.907 1.33 4.007.23s.997-2.903-.23-4.007zM12 20a8 8 0 1 1 0-16 8 8 0 0 1 0 16z"/></symbol><symbol id="upload" viewBox="0 0 32 32"><path d="M26.447 15.477a.729.729 0 0 1 0 1.046l-6.017 5.925a.757.757 0 0 1-1.062 0 .729.729 0 0 1 0-1.046l4.732-4.663H7.415a.748.748 0 0 1-.747-.74.746.746 0 0 1 .747-.741h16.686l-4.733-4.66a.73.73 0 0 1 0-1.048.757.757 0 0 1 1.064 0l6.017 5.927z"/></symbol><symbol id="f" viewBox="0 0 32 32"><path d="M18.381 32V17.405h4.718l.705-5.689H18.38V8.089c0-1.653.437-2.765 2.718-2.765h2.903V.22c-.507-.073-2.225-.219-4.225-.219-4.183 0-7.043 2.647-7.043 7.518v4.198H8.002v5.689h4.731v14.595h5.649z"/></symbol><symbol id="twitter" viewBox="0 0 32 32"><path d="M32 5.967a12.985 12.985 0 0 1-3.769 1.046 6.688 6.688 0 0 0 2.872-3.623l.013-.047c-1.2.731-2.597 1.29-4.086 1.597l-.085.015a6.499 6.499 0 0 0-4.787-2.097h-.005c-3.625 0-6.565 2.973-6.565 6.637 0 .52.058 1.027.171 1.513-5.456-.278-10.293-2.92-13.531-6.937a6.568 6.568 0 0 0-.887 3.317v.022-.001.017a6.648 6.648 0 0 0 2.897 5.493l.023.015a6.483 6.483 0 0 1-3.006-.85l.032.017v.083c0 3.215 2.263 5.897 5.265 6.509-.551.15-1.13.233-1.73.233-.423 0-.834-.043-1.235-.123.835 2.639 3.259 4.558 6.13 4.61a12.996 12.996 0 0 1-8.133 2.837h-.02.001c-.53 0-1.051-.032-1.566-.091 2.835 1.873 6.313 2.987 10.052 2.987h.01-.001c12.077 0 18.677-10.114 18.677-18.887l-.022-.859a13.313 13.313 0 0 0 3.253-3.38l.03-.048z"/></symbol><symbol id="google" viewBox="0 0 32 32"><path d="M19.81 14.645c.094.582.19 1.161.19 1.742 0 3-.856 5.418-2.761 7.16-1.811 1.838-4.097 2.806-7.049 2.806-2.856 0-5.238-.968-7.238-3S0 18.902 0 16c0-2.903.952-5.321 2.952-7.353s4.381-3 7.238-3c2.667 0 4.952.871 6.857 2.709l-2.76 2.711c-1.048-1.064-2.476-1.548-4.096-1.548-1.714 0-3.238.678-4.476 1.935-1.238 1.355-1.904 2.903-1.904 4.645 0 1.838.666 3.386 1.904 4.644s2.762 1.935 4.476 1.935c1.429 0 2.667-.386 3.81-1.16 1.143-.871 1.81-1.935 2-3.289h-5.81v-3.582h9.619zM32 17.646h-2.857v3h-2.952v-3h-2.952v-3.001h2.952v-2.999h2.952v2.999H32v3z"/></symbol><symbol id="linkedin" viewBox="0 0 32 32"><path d="M30.024 0H2.568C1.253 0 0 .893 0 2.168v27.599C0 31.042 1.254 32 2.568 32h27.456C31.339 32 32 31.041 32 29.767V2.168C32 .893 31.339 0 30.024 0z"/><path fill="#fff" style="fill:var(--color2,#fff)" d="M9.454 26.909H5.09V12.363h4.364v14.546zM7.521 10.182h-.033c-1.632 0-2.69-1.06-2.69-2.458 0-1.426 1.089-2.484 2.754-2.484s2.689 1.043 2.721 2.47c0 1.398-1.056 2.472-2.752 2.472zm20.115 16.727h-5.091v-7.864c0-1.956-.661-3.29-2.42-3.29-1.346 0-2.151.9-2.502 1.769-.13.311-.168.745-.168 1.178v8.207h-4.808s.064-13.091 0-14.546h4.808v1.98c.727-.991 1.897-2.404 4.481-2.404 3.203 0 5.701 2.078 5.701 6.547v8.423zM17.48 14.389l.031-.046v.046h-.031z"/></symbol><symbol id="sl" viewBox="0 0 32 32"><path d="M15.634.011c9.123-.205 16.6 7.246 16.358 16.452-.22 8.392-7.106 15.628-16.183 15.536-8.649-.087-15.762-7.095-15.806-16C.056 7.107 7.128.204 15.634.011z"/><path fill="#fff" style="fill:var(--color2,#fff)" d="M27.275 17.957c.848-.628 1.362-1.443 1.26-2.541-.101-1.077-.645-1.877-1.631-2.315-1.067-.47-2.088-.338-3.003.41-.105.085-.168.089-.276.019-1.697-1.119-3.567-1.746-5.584-1.95l-.388-.04-.322-.034.795-2.475.501-1.561.099.015c.061.009.115.017.169.028l.866.187c.74.161 1.481.322 2.224.473.212.043.317.118.378.342a2.151 2.151 0 0 0 2.401 1.563c1.463-.236 2.257-1.812 1.548-3.075-.567-1.009-2.329-1.612-3.465-.292-.111.13-.205.16-.371.124-.974-.214-1.95-.421-2.925-.629l-1.09-.232c-.556-.119-.816.033-.987.578l-.483 1.531c-.323 1.022-.645 2.044-.966 3.067-.042.133-.077.23-.255.229-.903-.007-1.793.121-2.676.308-1.583.335-3.056.933-4.395 1.847-.122.083-.197.05-.309-.002-.124-.057-.248-.119-.371-.18-.332-.165-.665-.33-1.017-.423-1.669-.442-3.652.915-3.31 3.144.134.877.655 1.511 1.373 1.992.118.079.144.15.123.279-.201 1.206-.076 2.376.411 3.502.692 1.601 1.883 2.758 3.33 3.67 1.651 1.042 3.482 1.57 5.402 1.812 1.68.21 3.35.13 5-.242 2.375-.536 4.489-1.555 6.117-3.422 1.291-1.481 1.863-3.203 1.597-5.167-.036-.262.027-.389.23-.54zm-5.648.081c.004.887-.792 1.68-1.687 1.681-.931.001-1.692-.782-1.693-1.743-.001-.878.784-1.649 1.684-1.651.927-.003 1.693.769 1.696 1.713zm-1.287 4.897c.194-.225.144-.492-.034-.669-.248-.246-.568-.315-.817-.172a2.133 2.133 0 0 0-.162.105 2.168 2.168 0 0 1-.128.084c-1.715 1.042-3.506 1.204-5.363.432a6.244 6.244 0 0 1-.82-.442 18.911 18.911 0 0 0-.268-.16c-.267-.156-.601-.101-.857.157-.168.169-.19.461-.021.7.095.134.224.255.359.35 1.16.814 2.465 1.154 3.974 1.172l.166-.011c.153-.01.344-.023.535-.041.938-.086 1.833-.333 2.643-.82.295-.18.565-.424.793-.685zm-6.375-4.901c.004.857-.802 1.683-1.643 1.685-.954.002-1.747-.766-1.75-1.693-.002-.917.774-1.7 1.686-1.7.924-.001 1.704.779 1.707 1.709z"/></symbol><symbol id="youtube" viewBox="0 0 46 32"><path d="M45.714 6.836A6.833 6.833 0 0 0 38.882 0H6.831A6.834 6.834 0 0 0-.001 6.836v18.328A6.833 6.833 0 0 0 6.831 32h32.051a6.834 6.834 0 0 0 6.832-6.836V6.836z"/><path fill="#fff" style="fill:var(--color2,#fff)" d="M18.286 24.94V7.724l13.055 8.608-13.055 8.608z"/></symbol><symbol id="close" viewBox="0 0 32 32"><path d="m25.333 8.547-1.88-1.88L16 14.12 8.547 6.667l-1.88 1.88L14.12 16l-7.453 7.453 1.88 1.88L16 17.88l7.453 7.453 1.88-1.88L17.88 16l7.453-7.453z"/></symbol><symbol id="warning" viewBox="0 0 32 32"><path d="m16 2.899 13.409 26.726H2.59L15.999 2.899zM16 0c-.69 0-1.379.465-1.903 1.395L.438 28.617C-.608 30.477.282 32 2.416 32h27.166c2.134 0 3.025-1.522 1.978-3.383L17.901 1.395C17.378.465 16.688 0 15.998 0z"/><path d="M18 26a2 2 0 1 1-3.999.001A2 2 0 0 1 18 26zM16 22a2 2 0 0 1-2-2v-6a2 2 0 1 1 4 0v6a2 2 0 0 1-2 2z"/></symbol></defs></svg>