<svg aria-hidden="true" style="position: absolute; width: 0; height: 0; overflow: hidden;" version="1.1" xmlns="http://www.w3.org/2000/svg" xmlns:xlink="http://www.w3.org/1999/xlink">
<defs>
<symbol id="comment" viewBox="0 0 32 32">
<path stroke-linejoin="miter" stroke-linecap="butt" stroke-miterlimit="4" stroke-width="2" d="M5 26v-1h-3c-0.622 0-1-0.404-1-0.904v-21.956c0-0.654 0.53-1.14 1-1.14h28c0.47 0 1 0.486 1 1.14v21.956c0 0.5-0.378 0.904-1 0.904h-13.684l-10.962 5.688c-0.101 0.052-0.218 0.097-0.341 0.128l-0.011 0.002-0.002-0.066v-4.752z"></path>
</symbol>
<symbol id="copy" viewBox="0 0 64 32">
<path d="M0 0h64l-32 32-32-32z"></path>
</symbol>
<symbol id="search" viewBox="0 0 32 32">
<path d="M31.008 27.231l-7.58-6.447c-0.784-0.705-1.622-1.029-2.299-0.998 1.789-2.096 2.87-4.815 2.87-7.787 0-6.627-5.373-12-12-12s-12 5.373-12 12 5.373 12 12 12c2.972 0 5.691-1.081 7.787-2.87-0.031 0.677 0.293 1.515 0.998 2.299l6.447 7.58c1.104 1.226 2.907 1.33 4.007 0.23s0.997-2.903-0.23-4.007zM12 20c-4.418 0-8-3.582-8-8s3.582-8 8-8 8 3.582 8 8-3.582 8-8 8z"></path>
</symbol>
<symbol id="upload" viewBox="0 0 32 32">
<path d="M26.447 15.477c0.136 0.133 0.22 0.318 0.22 0.523s-0.084 0.39-0.22 0.523l-0 0-6.017 5.925c-0.137 0.134-0.324 0.217-0.531 0.217s-0.394-0.083-0.531-0.217l0 0c-0.136-0.133-0.22-0.318-0.22-0.523s0.084-0.39 0.22-0.523l0-0 4.732-4.663h-16.68c-0.002 0-0.003 0-0.005 0-0.41 0-0.743-0.331-0.747-0.74v-0c0.003-0.41 0.336-0.741 0.747-0.741 0.002 0 0.004 0 0.006 0h16.68l-4.733-4.66c-0.136-0.133-0.22-0.319-0.22-0.524s0.084-0.391 0.22-0.524l0-0c0.137-0.135 0.325-0.219 0.532-0.219s0.395 0.084 0.532 0.219l-0-0 6.017 5.927z"></path>
</symbol>
<symbol id="f" viewBox="0 0 32 32">
<path d="M18.381 32v-14.595h4.718l0.705-5.689h-5.424v-3.627c0-1.653 0.437-2.765 2.718-2.765h2.903v-5.104c-0.507-0.073-2.225-0.219-4.225-0.219-4.183 0-7.043 2.647-7.043 7.518v4.198h-4.731v5.689h4.731v14.595h5.649z"></path>
</symbol>
<symbol id="twitter" viewBox="0 0 32 32">
<path d="M32 5.967c-1.177 0.528-2.441 0.886-3.769 1.046 1.359-0.836 2.379-2.11 2.872-3.623l0.013-0.047c-1.2 0.731-2.597 1.29-4.086 1.597l-0.085 0.015c-1.194-1.291-2.896-2.097-4.787-2.097-0.002 0-0.004 0-0.005 0h0c-3.625 0-6.565 2.973-6.565 6.637 0 0.52 0.058 1.027 0.171 1.513-5.456-0.278-10.293-2.92-13.531-6.937-0.558 0.952-0.887 2.096-0.887 3.317 0 0.007 0 0.014 0 0.022v-0.001c0 0.005-0 0.011-0 0.017 0 2.281 1.148 4.294 2.897 5.493l0.023 0.015c-1.098-0.038-2.117-0.342-3.006-0.85l0.032 0.017v0.083c0 3.215 2.263 5.897 5.265 6.509-0.551 0.15-1.13 0.233-1.73 0.233-0.423 0-0.834-0.043-1.235-0.123 0.835 2.639 3.259 4.558 6.13 4.61-2.211 1.768-5.047 2.837-8.133 2.837-0.007 0-0.013 0-0.020 0h0.001c-0.53 0-1.051-0.032-1.566-0.091 2.835 1.873 6.313 2.987 10.052 2.987 0.003 0 0.007 0 0.010 0h-0.001c12.077 0 18.677-10.114 18.677-18.887l-0.022-0.859c1.297-0.945 2.387-2.082 3.253-3.38l0.030-0.048z"></path>
</symbol>
<symbol id="google" viewBox="0 0 32 32">
<path d="M19.81 14.645c0.094 0.582 0.19 1.161 0.19 1.742 0 3-0.856 5.418-2.761 7.16-1.811 1.838-4.097 2.806-7.049 2.806-2.856 0-5.238-0.968-7.238-3s-2.952-4.451-2.952-7.353c0-2.903 0.952-5.321 2.952-7.353s4.381-3 7.238-3c2.667 0 4.952 0.871 6.857 2.709l-2.76 2.711c-1.048-1.064-2.476-1.548-4.096-1.548-1.714 0-3.238 0.678-4.476 1.935-1.238 1.355-1.904 2.903-1.904 4.645 0 1.838 0.666 3.386 1.904 4.644s2.762 1.935 4.476 1.935c1.429 0 2.667-0.386 3.81-1.16 1.143-0.871 1.81-1.935 2-3.289h-5.81v-3.582h9.619zM32 17.646h-2.857v3h-2.952v-3h-2.952v-3.001h2.952v-2.999h2.952v2.999h2.857v3z"></path>
</symbol>
<symbol id="linkedin" viewBox="0 0 32 32">
<path  d="M30.024 0h-27.456c-1.315 0-2.568 0.893-2.568 2.168v27.599c0 1.275 1.254 2.233 2.568 2.233h27.456c1.315 0 1.976-0.959 1.976-2.233v-27.599c0-1.275-0.661-2.168-1.976-2.168z"></path>
<path fill="#fff" style="fill: var(--color2, #fff)" d="M9.454 26.909h-4.364v-14.546h4.364v14.546zM7.521 10.182h-0.033c-1.632 0-2.69-1.060-2.69-2.458 0-1.426 1.089-2.484 2.754-2.484s2.689 1.043 2.721 2.47c0 1.398-1.056 2.472-2.752 2.472zM27.636 26.909h-5.091v-7.864c0-1.956-0.661-3.29-2.42-3.29-1.346 0-2.151 0.9-2.502 1.769-0.13 0.311-0.168 0.745-0.168 1.178v8.207h-4.808c0 0 0.064-13.091 0-14.546h4.808v1.98c0.727-0.991 1.897-2.404 4.481-2.404 3.203 0 5.701 2.078 5.701 6.547v8.423zM17.48 14.389c0.009-0.014 0.020-0.030 0.031-0.046v0.046h-0.031z"></path>
</symbol>
<symbol id="sl" viewBox="0 0 32 32">
<path  d="M15.634 0.011c9.123-0.205 16.6 7.246 16.358 16.452-0.22 8.392-7.106 15.628-16.183 15.536-8.649-0.087-15.762-7.095-15.806-16 0.053-8.892 7.125-15.795 15.631-15.988z"></path>
<path fill="#fff" style="fill: var(--color2, #fff)" d="M27.275 17.957c0.848-0.628 1.362-1.443 1.26-2.541-0.101-1.077-0.645-1.877-1.631-2.315-1.067-0.47-2.088-0.338-3.003 0.41-0.105 0.085-0.168 0.089-0.276 0.019-1.697-1.119-3.567-1.746-5.584-1.95-0.127-0.013-0.255-0.026-0.388-0.040l-0-0-0.322-0.034c0.268-0.834 0.532-1.656 0.795-2.475l0.501-1.561c0.035 0.006 0.068 0.010 0.099 0.015 0.061 0.009 0.115 0.017 0.169 0.028 0.289 0.062 0.577 0.125 0.866 0.187v0 0l0 0c0.74 0.161 1.481 0.322 2.224 0.473 0.212 0.043 0.317 0.118 0.378 0.342 0.283 1.059 1.337 1.734 2.401 1.563 1.463-0.236 2.257-1.812 1.548-3.075-0.567-1.009-2.329-1.612-3.465-0.292-0.111 0.13-0.205 0.16-0.371 0.124-0.974-0.214-1.95-0.421-2.925-0.629-0.363-0.077-0.727-0.155-1.090-0.232-0.556-0.119-0.816 0.033-0.987 0.578-0.161 0.511-0.322 1.021-0.483 1.531l-0 0c-0.323 1.022-0.645 2.044-0.966 3.067-0.042 0.133-0.077 0.23-0.255 0.229-0.903-0.007-1.793 0.121-2.676 0.308-1.583 0.335-3.056 0.933-4.395 1.847-0.122 0.083-0.197 0.050-0.309-0.002-0.124-0.057-0.248-0.119-0.371-0.18v0c-0.332-0.165-0.665-0.33-1.017-0.423-1.669-0.442-3.652 0.915-3.31 3.144 0.134 0.877 0.655 1.511 1.373 1.992 0.118 0.079 0.144 0.15 0.123 0.279-0.201 1.206-0.076 2.376 0.411 3.502 0.692 1.601 1.883 2.758 3.33 3.67 1.651 1.042 3.482 1.57 5.402 1.812 1.68 0.21 3.35 0.13 5-0.242 2.375-0.536 4.489-1.555 6.117-3.422 1.291-1.481 1.863-3.203 1.597-5.167-0.036-0.262 0.027-0.389 0.23-0.54zM21.627 18.038c0.004 0.887-0.792 1.68-1.687 1.681-0.931 0.001-1.692-0.782-1.693-1.743-0.001-0.878 0.784-1.649 1.684-1.651 0.927-0.003 1.693 0.769 1.696 1.713zM20.34 22.935c0.194-0.225 0.144-0.492-0.034-0.669-0.248-0.246-0.568-0.315-0.817-0.172-0.056 0.032-0.109 0.068-0.162 0.105v0 0c-0.042 0.029-0.084 0.058-0.128 0.084-1.715 1.042-3.506 1.204-5.363 0.432-0.285-0.119-0.553-0.28-0.82-0.442v0c-0.089-0.054-0.179-0.108-0.268-0.16-0.267-0.156-0.601-0.101-0.857 0.157-0.168 0.169-0.19 0.461-0.021 0.7 0.095 0.134 0.224 0.255 0.359 0.35 1.16 0.814 2.465 1.154 3.974 1.172 0.047-0.004 0.103-0.007 0.166-0.011 0.153-0.010 0.344-0.023 0.535-0.041 0.938-0.086 1.833-0.333 2.643-0.82 0.295-0.18 0.565-0.424 0.793-0.685zM13.965 18.034c0.004 0.857-0.802 1.683-1.643 1.685-0.954 0.002-1.747-0.766-1.75-1.693-0.002-0.917 0.774-1.7 1.686-1.7 0.924-0.001 1.704 0.779 1.707 1.709z"></path>
</symbol>
<symbol id="youtube" viewBox="0 0 46 32">
<path  d="M45.714 6.836c0-3.776-3.058-6.836-6.832-6.836h-32.051c-3.773 0-6.832 3.060-6.832 6.836v18.328c0 3.776 3.058 6.836 6.832 6.836h32.051c3.773 0 6.832-3.060 6.832-6.836v-18.328z"></path>
<path fill="#fff" style="fill: var(--color2, #fff)" d="M18.286 24.94v-17.216l13.055 8.608-13.055 8.608z"></path>
</symbol>
<symbol id="close" viewBox="0 0 32 32">
<path d="M25.333 8.547l-1.88-1.88-7.453 7.453-7.453-7.453-1.88 1.88 7.453 7.453-7.453 7.453 1.88 1.88 7.453-7.453 7.453 7.453 1.88-1.88-7.453-7.453 7.453-7.453z"></path>
</symbol>
<symbol id="warning" viewBox="0 0 32 32">
<path d="M16 2.899l13.409 26.726h-26.819l13.409-26.726zM16 0c-0.69 0-1.379 0.465-1.903 1.395l-13.659 27.222c-1.046 1.86-0.156 3.383 1.978 3.383h27.166c2.134 0 3.025-1.522 1.978-3.383h0l-13.659-27.222c-0.523-0.93-1.213-1.395-1.903-1.395v0z"></path>
<path d="M18 26c0 1.105-0.895 2-2 2s-2-0.895-2-2c0-1.105 0.895-2 2-2s2 0.895 2 2z"></path>
<path d="M16 22c-1.105 0-2-0.895-2-2v-6c0-1.105 0.895-2 2-2s2 0.895 2 2v6c0 1.105-0.895 2-2 2z"></path>
</symbol>
</defs>
</svg>
